<svg version="1.1" id="Icons" xmlns="http://www.w3.org/2000/svg" xmlns:xlink="http://www.w3.org/1999/xlink" x="0px" y="0px" viewBox="0 0 32 32" style="enable-background:new 0 0 32 32;" xml:space="preserve">
<style type="text/css">
	.st0{fill:none;stroke:#000000;stroke-width:2;stroke-linecap:round;stroke-linejoin:round;stroke-miterlimit:10;}
</style>
<path class="st0" d="M26,20c-1.1,0-2.1,0.4-3,1H18c-0.8-0.6-1.9-1-3-1c-2.8,0-5,2.2-5,5s2.2,5,5,5c1.1,0,2.1-0.4,3-1H23
	c0.8,0.6,1.9,1,3,1c2.8,0,5-2.2,5-5S28.8,20,26,20z" id="id_101" style="stroke: rgb(86, 204, 227);"></path>
<line class="st0" x1="15" y1="23" x2="15" y2="27" id="id_102" style="stroke: rgb(59, 191, 217);"></line>
<line class="st0" x1="13" y1="25" x2="17" y2="25" id="id_103" style="stroke: rgb(68, 194, 219);"></line>
<line class="st0" x1="27" y1="24" x2="27" y2="24" id="id_104" style="stroke: rgb(47, 184, 212);"></line>
<line class="st0" x1="25" y1="26" x2="25" y2="26" id="id_105" style="stroke: rgb(44, 190, 219);"></line>
<path class="st0" d="M10.7,27.6C5.1,26.1,1,21,1,15C1,7.8,6.8,2,14,2s13,5.8,13,13c0,1.8-0.4,3.5-1,5" id="id_106" style="stroke: rgb(69, 190, 214);"></path>
<path class="st0" d="M10,24.7c-1.2-2.4-2-5.8-2-9.7c0-7.2,2.7-13,6-13s6,5.8,6,13c0,2.2-0.2,4.2-0.7,6" id="id_107" style="stroke: rgb(54, 183, 209);"></path>
<line class="st0" x1="1" y1="15" x2="27" y2="15" id="id_108" style="stroke: rgb(38, 183, 212);"></line>
</svg>